<svg width="20.000000" height="20.000000" viewBox="0 0 20 20" fill="none" xmlns="http://www.w3.org/2000/svg" xmlns:xlink="http://www.w3.org/1999/xlink">
	<desc>
			Created with Pixso.
	</desc>
	<defs/>
	<path id="Vector" d="M19.8055 8.0415L19 8.0415L19 8L10 8L10 12L15.6515 12C14.827 14.3286 12.6115 16 10 16C6.68652 16 4 13.3135 4 10C4 6.68652 6.68652 4 10 4C11.5295 4 12.921 4.5769 13.9805 5.51953L16.809 2.69092C15.023 1.02661 12.634 0 10 0C4.47748 0 0 4.47754 0 10C0 15.5225 4.47748 20 10 20C15.5225 20 20 15.5225 20 10C20 9.32959 19.931 8.67505 19.8055 8.0415Z" fill="#FFC107" fill-opacity="1.000000" fill-rule="nonzero"/>
	<path id="Vector" d="M1.15302 5.34546L4.43848 7.75488C5.32751 5.55396 7.48053 4 10 4C11.5295 4 12.921 4.5769 13.9805 5.51953L16.809 2.69092C15.023 1.02661 12.634 0 10 0C6.159 0 2.828 2.16846 1.15302 5.34546Z" fill="#FF3D00" fill-opacity="1.000000" fill-rule="nonzero"/>
	<path id="Vector" d="M10 20C12.583 20 14.93 19.0115 16.7045 17.4041L13.6095 14.7849C12.5718 15.5742 11.3037 16.001 10 16C7.39899 16 5.19049 14.3416 4.35852 12.0271L1.09747 14.5396C2.7525 17.7781 6.11353 20 10 20Z" fill="#4CAF50" fill-opacity="1.000000" fill-rule="nonzero"/>
	<path id="Vector" d="M19.8055 8.0415L19 8.0415L19 8L10 8L10 12L15.6515 12C15.2571 13.1082 14.5467 14.0767 13.608 14.7854L13.6095 14.7849L16.7045 17.4041C16.4855 17.603 20 15 20 10C20 9.32959 19.931 8.67505 19.8055 8.0415Z" fill="#1976D2" fill-opacity="1.000000" fill-rule="nonzero"/>
</svg>
