<svg width="83" height="24" viewBox="0 0 83 24" fill="none" xmlns="http://www.w3.org/2000/svg">
<path d="M14.13 5.43018V20.0002H10.73V13.8402H4.80997V20.0002H1.40997V5.43018H4.80997V11.5202H10.73V5.43018H14.13Z" fill="black"/>
<path d="M20.3568 20.0002H16.9568V5.43018H20.3568V20.0002Z" fill="black"/>
<path d="M39.5478 5.43018V20.0002H36.5678V11.6202C36.5678 11.4268 36.5711 11.2168 36.5778 10.9902C36.5911 10.7635 36.6111 10.5335 36.6378 10.3002L32.7678 17.7902C32.6478 18.0235 32.4845 18.2002 32.2778 18.3202C32.0778 18.4402 31.8478 18.5002 31.5878 18.5002H31.1278C30.8678 18.5002 30.6345 18.4402 30.4278 18.3202C30.2278 18.2002 30.0678 18.0235 29.9478 17.7902L26.0778 10.2802C26.0978 10.5202 26.1145 10.7568 26.1278 10.9902C26.1411 11.2168 26.1478 11.4268 26.1478 11.6202V20.0002H23.1678V5.43018H25.7478C25.8945 5.43018 26.0211 5.43351 26.1278 5.44018C26.2411 5.44684 26.3411 5.46684 26.4278 5.50018C26.5145 5.53351 26.5911 5.58684 26.6578 5.66018C26.7311 5.72684 26.8011 5.82351 26.8678 5.95018L30.6178 13.3402C30.7511 13.5935 30.8778 13.8568 30.9978 14.1302C31.1245 14.4035 31.2445 14.6835 31.3578 14.9702C31.4711 14.6768 31.5878 14.3902 31.7078 14.1102C31.8345 13.8302 31.9678 13.5635 32.1078 13.3102L35.8478 5.95018C35.9145 5.82351 35.9811 5.72684 36.0478 5.66018C36.1211 5.58684 36.2011 5.53351 36.2878 5.50018C36.3745 5.46684 36.4711 5.44684 36.5778 5.44018C36.6911 5.43351 36.8211 5.43018 36.9678 5.43018H39.5478Z" fill="black"/>
<path d="M58.747 5.43018V20.0002H55.767V11.6202C55.767 11.4268 55.7703 11.2168 55.777 10.9902C55.7903 10.7635 55.8103 10.5335 55.837 10.3002L51.967 17.7902C51.847 18.0235 51.6837 18.2002 51.477 18.3202C51.277 18.4402 51.047 18.5002 50.787 18.5002H50.327C50.067 18.5002 49.8337 18.4402 49.627 18.3202C49.427 18.2002 49.267 18.0235 49.147 17.7902L45.277 10.2802C45.297 10.5202 45.3137 10.7568 45.327 10.9902C45.3403 11.2168 45.347 11.4268 45.347 11.6202V20.0002H42.367V5.43018H44.947C45.0937 5.43018 45.2203 5.43351 45.327 5.44018C45.4403 5.44684 45.5403 5.46684 45.627 5.50018C45.7137 5.53351 45.7903 5.58684 45.857 5.66018C45.9303 5.72684 46.0003 5.82351 46.067 5.95018L49.817 13.3402C49.9503 13.5935 50.077 13.8568 50.197 14.1302C50.3237 14.4035 50.4437 14.6835 50.557 14.9702C50.6703 14.6768 50.787 14.3902 50.907 14.1102C51.0337 13.8302 51.167 13.5635 51.307 13.3102L55.047 5.95018C55.1137 5.82351 55.1803 5.72684 55.247 5.66018C55.3203 5.58684 55.4003 5.53351 55.487 5.50018C55.5737 5.46684 55.6703 5.44684 55.777 5.44018C55.8903 5.43351 56.0203 5.43018 56.167 5.43018H58.747Z" fill="black"/>
<path d="M64.9662 8.03018V11.4302H69.5462V13.9302H64.9662V17.4002H70.9462V20.0002H61.5662V5.43018H70.9462V8.03018H64.9662Z" fill="black"/>
<path d="M81.8111 17.3002V20.0002H73.0311V5.43018H76.4111V17.3002H81.8111Z" fill="black"/>
</svg>
