<svg width="24" height="24" viewBox="0 0 24 24" fill="none" xmlns="http://www.w3.org/2000/svg">
<path d="M7.98899 3.49944C7.85816 3.63339 7.78491 3.8132 7.78491 4.00044C7.78491 4.18768 7.85816 4.36749 7.98899 4.50144L15.2985 11.9999L7.98899 19.4969C7.85816 19.6309 7.78491 19.8107 7.78491 19.9979C7.78491 20.1852 7.85816 20.365 7.98899 20.4989C8.05259 20.5643 8.12862 20.6162 8.21261 20.6516C8.29659 20.6871 8.38683 20.7053 8.47799 20.7053C8.56915 20.7053 8.65939 20.6871 8.74338 20.6516C8.82736 20.6162 8.9034 20.5643 8.96699 20.4989L16.74 12.5234C16.8765 12.3834 16.9529 12.1955 16.9529 11.9999C16.9529 11.8044 16.8765 11.6165 16.74 11.4764L8.96699 3.50094C8.9034 3.43563 8.82736 3.38371 8.74338 3.34827C8.65939 3.31282 8.56915 3.29456 8.47799 3.29456C8.38683 3.29456 8.29659 3.31282 8.21261 3.34827C8.12862 3.38371 8.05259 3.43563 7.98899 3.50094V3.49944Z" fill="black"/>
</svg>
