<svg width="24" height="24" viewBox="0 0 24 24" fill="none" xmlns="http://www.w3.org/2000/svg">
<path d="M13.5402 11.8286C13.5402 15.5906 10.5113 18.6402 6.77505 18.6402C3.03878 18.6402 0.0098877 15.5906 0.0098877 11.8286C0.0098877 8.06671 3.03878 5.01709 6.77505 5.01709C10.5113 5.01709 13.5402 8.06671 13.5402 11.8286Z" fill="#575757"/>
<path d="M20.9617 11.8287C20.9617 15.3699 19.4474 18.2406 17.5791 18.2406C15.7111 18.2406 14.1966 15.3699 14.1966 11.8287C14.1966 8.28748 15.7111 5.41679 17.5791 5.41679C19.4474 5.41679 20.9617 8.28748 20.9617 11.8287Z" fill="#575757"/>
<path d="M23.9975 11.8287C23.9975 15.0015 23.4648 17.5736 22.8078 17.5736C22.1508 17.5736 21.6183 15.0015 21.6183 11.8287C21.6183 8.65594 22.1508 6.08388 22.8078 6.08388C23.4648 6.08388 23.9975 8.65594 23.9975 11.8287Z" fill="#575757"/>
</svg>
