<svg width="24" height="24" viewBox="0 0 24 24" fill="none" xmlns="http://www.w3.org/2000/svg">
<g clip-path="url(#clip0_4_608)">
<path d="M23.6662 2.48469C23.5334 2.37001 23.3719 2.29375 23.1989 2.2641C23.026 2.23446 22.8482 2.25257 22.6848 2.31648L0.971396 10.8139C0.663668 10.9336 0.40314 11.15 0.229035 11.4305C0.0549301 11.711 -0.0233285 12.0406 0.00604102 12.3694C0.0354106 12.6983 0.170819 13.0087 0.391879 13.254C0.61294 13.4992 0.907689 13.666 1.23175 13.7293L6.85778 14.8339V21.1071C6.85668 21.4488 6.95822 21.7829 7.14925 22.0662C7.34029 22.3495 7.61201 22.5689 7.9292 22.696C8.24591 22.8253 8.59419 22.8563 8.92878 22.7851C9.26336 22.7138 9.56876 22.5435 9.80526 22.2963L12.5181 19.4828L16.822 23.2499C17.1325 23.5253 17.533 23.6777 17.9481 23.6785C18.1299 23.6783 18.3107 23.6498 18.4838 23.5938C18.7666 23.5041 19.0209 23.3418 19.2215 23.1232C19.4221 22.9046 19.5619 22.6372 19.627 22.3478L23.9759 3.42861C24.0148 3.25799 24.0065 3.07999 23.952 2.91371C23.8974 2.74742 23.7986 2.59912 23.6662 2.48469ZM17.1156 6.3418L7.51671 13.216L2.20246 12.1735L17.1156 6.3418ZM8.57206 21.1071V16.02L11.2281 18.3492L8.57206 21.1071ZM17.9502 21.9642L9.09169 14.1964L21.8416 5.05824L17.9502 21.9642Z" fill="#575757"/>
</g>
<defs>
<clipPath id="clip0_4_608">
<rect width="24" height="24" fill="white"/>
</clipPath>
</defs>
</svg>
