<svg width="511.245148" height="579.588867" viewBox="0 0 511.245 579.589" fill="none" xmlns="http://www.w3.org/2000/svg" xmlns:xlink="http://www.w3.org/1999/xlink">
	<desc>
			Created with Pixso.
	</desc>
	<defs>
		<filter id="filter_505_856_dd" x="0.000000" y="0.000000" width="511.245148" height="579.588867" filterUnits="userSpaceOnUse" color-interpolation-filters="sRGB">
			<feFlood flood-opacity="0" result="BackgroundImageFix"/>
			<feGaussianBlur in="BackgroundImage" stdDeviation="5.33333"/>
			<feComposite in2="SourceAlpha" operator="in" result="effect_backgroundBlur_1"/>
			<feColorMatrix in="SourceAlpha" type="matrix" values="0 0 0 0 0 0 0 0 0 0 0 0 0 0 0 0 0 0 127 0" result="hardAlpha"/>
			<feOffset dx="0" dy="22"/>
			<feGaussianBlur stdDeviation="14.6667"/>
			<feComposite in2="hardAlpha" operator="out" k2="-1" k3="1"/>
			<feColorMatrix type="matrix" values="0 0 0 0 0.58039 0 0 0 0 0.42745 0 0 0 0 0.78431 0 0 0 0.24 0"/>
			<feBlend mode="normal" in2="effect_backgroundBlur_1" result="effect_dropShadow_2"/>
			<feBlend mode="normal" in="SourceGraphic" in2="effect_dropShadow_2" result="shape"/>
			<feColorMatrix in="SourceAlpha" type="matrix" values="0 0 0 0 0 0 0 0 0 0 0 0 0 0 0 0 0 0 127 0" result="hardAlpha"/>
			<feOffset dx="0" dy="20"/>
			<feGaussianBlur stdDeviation="13.3333"/>
			<feComposite in2="hardAlpha" operator="arithmetic" k2="-1" k3="1"/>
			<feColorMatrix type="matrix" values="0 0 0 0 1 0 0 0 0 1 0 0 0 0 1 0 0 0 0.7 0"/>
			<feBlend mode="normal" in2="shape" result="effect_innerShadow_3"/>
			<feColorMatrix in="SourceAlpha" type="matrix" values="0 0 0 0 0 0 0 0 0 0 0 0 0 0 0 0 0 0 127 0" result="hardAlpha"/>
			<feOffset dx="0" dy="16"/>
			<feGaussianBlur stdDeviation="2.66667"/>
			<feComposite in2="hardAlpha" operator="arithmetic" k2="-1" k3="1"/>
			<feColorMatrix type="matrix" values="0 0 0 0 1 0 0 0 0 1 0 0 0 0 1 0 0 0 0.4 0"/>
			<feBlend mode="normal" in2="effect_innerShadow_3" result="effect_innerShadow_4"/>
			<feColorMatrix in="SourceAlpha" type="matrix" values="0 0 0 0 0 0 0 0 0 0 0 0 0 0 0 0 0 0 127 0" result="hardAlpha"/>
			<feOffset dx="0" dy="4"/>
			<feGaussianBlur stdDeviation="1.33333"/>
			<feComposite in2="hardAlpha" operator="arithmetic" k2="-1" k3="1"/>
			<feColorMatrix type="matrix" values="0 0 0 0 1 0 0 0 0 1 0 0 0 0 1 0 0 0 0.4 0"/>
			<feBlend mode="normal" in2="effect_innerShadow_4" result="effect_innerShadow_5"/>
			<feColorMatrix in="SourceAlpha" type="matrix" values="0 0 0 0 0 0 0 0 0 0 0 0 0 0 0 0 0 0 127 0" result="hardAlpha"/>
			<feOffset dx="0" dy="1"/>
			<feGaussianBlur stdDeviation="2.66667"/>
			<feComposite in2="hardAlpha" operator="arithmetic" k2="-1" k3="1"/>
			<feColorMatrix type="matrix" values="0 0 0 0 1 0 0 0 0 1 0 0 0 0 1 0 0 0 0.7 0"/>
			<feBlend mode="normal" in2="effect_innerShadow_5" result="effect_innerShadow_6"/>
		</filter>
		<linearGradient id="paint_linear_505_856_0" x1="31.512451" y1="194.775879" x2="447.043274" y2="309.650818" gradientUnits="userSpaceOnUse">
			<stop stop-color="#6ED3F2" stop-opacity="0.600000"/>
			<stop offset="1.000000" stop-color="#AABDFF" stop-opacity="0.600000"/>
		</linearGradient>
	</defs>
	<g filter="url(#filter_505_856_dd)">
		<path id="Vector" d="M47.1262 182.848C35.7181 147.748 57.1641 99.7893 85.0339 75.6091C114.441 50.095 156.023 60.3918 192.35 56.8503C218.947 54.2576 245.464 66.9465 271.122 57.4683C307.686 43.9612 313.463 12.2141 348.827 24.957C383.386 37.4099 386.046 69.4541 402.691 104.877C414.333 129.653 441.788 141.038 452.162 166.555C462.791 192.695 473.748 224.742 462.526 252.038C450.336 281.692 408.647 283.684 392.68 311.248C378.398 335.904 389.511 368.424 379.521 395.334C366.231 431.134 354.473 472.61 324.909 493.811C296.484 514.194 255.857 520.55 227.075 504.655C196.255 487.634 191.208 441.332 172.393 409.581C159.62 388.028 137.811 372.219 133.358 346.509C128.975 321.208 159.773 291.938 148.213 269.998C126.407 228.611 61.8748 228.226 47.1262 182.848Z" fill="url(#paint_linear_505_856_0)" fill-opacity="1.000000" fill-rule="evenodd"/>
	</g>
</svg>
