<svg width="320.241211" height="676.960693" viewBox="0 0 320.241 676.961" fill="none" xmlns="http://www.w3.org/2000/svg" xmlns:xlink="http://www.w3.org/1999/xlink">
	<desc>
			Created with Pixso.
	</desc>
	<defs>
		<filter id="filter_505_858_dd" x="2.024170" y="0.000000" width="316.194031" height="643.012207" filterUnits="userSpaceOnUse" color-interpolation-filters="sRGB">
			<feFlood flood-opacity="0" result="BackgroundImageFix"/>
			<feGaussianBlur in="BackgroundImage" stdDeviation="3.87865"/>
			<feComposite in2="SourceAlpha" operator="in" result="effect_backgroundBlur_1"/>
			<feBlend mode="normal" in="SourceGraphic" in2="effect_backgroundBlur_1" result="shape"/>
		</filter>
		<clipPath id="clip505_865">
			<rect id="icons8-empty_battery 1" width="14.199628" height="14.199628" transform="translate(270.628052 25.295410)" fill="white" fill-opacity="0"/>
		</clipPath>
		<clipPath id="clip505_867">
			<rect id="icons8-wi-fi 1" width="14.199628" height="14.199628" transform="translate(253.872559 25.295410)" fill="white" fill-opacity="0"/>
		</clipPath>
		<clipPath id="clip505_869">
			<rect id="icons8-signal 1" width="10.912771" height="10.912771" transform="translate(238.618774 26.813477)" fill="white" fill-opacity="0"/>
		</clipPath>
		<filter id="filter_505_872_dd" x="48.517090" y="562.272949" width="222.952759" height="114.687744" filterUnits="userSpaceOnUse" color-interpolation-filters="sRGB">
			<feFlood flood-opacity="0" result="BackgroundImageFix"/>
			<feBlend mode="normal" in="SourceGraphic" in2="BackgroundImageFix" result="shape"/>
			<feGaussianBlur stdDeviation="17.7234" result="effect_layerBlur_1"/>
		</filter>
		<linearGradient id="paint_linear_505_858_0" x1="160.121185" y1="0.000000" x2="160.121185" y2="643.012207" gradientUnits="userSpaceOnUse">
			<stop stop-color="#FFFFFF"/>
			<stop offset="0.052083" stop-color="#FFFFFF" stop-opacity="0.000000"/>
			<stop offset="0.973958" stop-color="#FFFFFF" stop-opacity="0.000000"/>
			<stop offset="1.000000" stop-color="#FFFFFF"/>
		</linearGradient>
	</defs>
	<g filter="url(#filter_505_858_dd)">
		<path id="Rectangle 3" d="M2.02417 51.3499C2.02417 22.9902 25.0143 0 53.3741 0L266.868 0C295.228 0 318.218 22.9902 318.218 51.3499L318.218 591.662C318.218 620.022 295.228 643.012 266.868 643.012L53.374 643.012C25.0142 643.012 2.02417 620.022 2.02417 591.662L2.02417 51.3499Z" fill="#FFFFFF" fill-opacity="0.350000" fill-rule="nonzero"/>
	</g>
	<path id="Rectangle 3" d="M53.3741 0C25.0143 0 2.02417 22.9902 2.02417 51.3499L2.02417 591.662C2.02417 620.022 25.0142 643.012 53.374 643.012L266.868 643.012C295.228 643.012 318.218 620.022 318.218 591.662L318.218 51.3499C318.218 22.9902 295.228 0 266.868 0L53.3741 0ZM53.3741 2.02368L266.868 2.02368Q277.085 2.02368 285.805 5.63574Q294.524 9.24756 301.747 16.4709Q308.97 23.6943 312.582 32.4136Q316.194 41.1335 316.195 51.3499L316.195 591.662Q316.195 601.879 312.582 610.6Q308.97 619.318 301.747 626.541Q294.523 633.766 285.802 637.378Q277.083 640.989 266.868 640.989L53.3741 640.989Q43.1592 640.989 34.4401 637.377Q25.7195 633.766 18.4951 626.541Q11.2722 619.318 7.66028 610.6Q4.04779 601.879 4.04779 591.662L4.04779 51.3499Q4.04779 41.134 7.65961 32.4143Q11.2715 23.6946 18.4951 16.4709Q25.7188 9.24731 34.4386 5.6355Q43.1583 2.02368 53.3741 2.02368Z" fill="url(#paint_linear_505_858_0)" fill-opacity="1.000000" fill-rule="evenodd"/>
	<path id="Rectangle 1340" d="M1.06927 102.447L1.87122 102.447L1.87122 127.307L1.06927 127.307C0.478699 127.307 0 126.828 0 126.238L0 103.516C0 102.926 0.478699 102.447 1.06927 102.447Z" fill="#FFFFFF" fill-opacity="0.730000" fill-rule="evenodd"/>
	<path id="Rectangle 1341" d="M1.06927 149.762L1.87122 149.762L1.87122 197.344L1.06927 197.344C0.478699 197.344 0 196.865 0 196.274L0 150.831C0 150.24 0.478699 149.762 1.06927 149.762Z" fill="#FFFFFF" fill-opacity="0.730000" fill-rule="evenodd"/>
	<path id="Rectangle 1342" d="M1.06927 212.045L1.87122 212.045L1.87122 259.627L1.06927 259.627C0.478699 259.627 0 259.148 0 258.557L0 213.114C0 212.524 0.478699 212.045 1.06927 212.045Z" fill="#FFFFFF" fill-opacity="0.730000" fill-rule="evenodd"/>
	<path id="Rectangle 1343" d="M319.172 166.334L318.37 166.334L318.37 242.518L319.172 242.518C319.763 242.518 320.241 242.04 320.241 241.449L320.241 167.403C320.241 166.813 319.763 166.334 319.172 166.334Z" fill="#FFFFFF" fill-opacity="0.730000" fill-rule="evenodd"/>
	<path id="9:41" d="M36.933 34.3141C36.9628 34.8687 37.1768 35.2521 37.5751 35.4643C37.7798 35.576 38.0106 35.6318 38.2675 35.6318C38.7476 35.6318 39.1571 35.4327 39.4958 35.0344C39.8346 34.6324 40.0746 33.819 40.2161 32.5944C39.9928 32.948 39.7154 33.1974 39.3842 33.3426C39.0566 33.484 38.703 33.5548 38.3233 33.5548C37.5528 33.5548 36.9423 33.3147 36.4919 32.8345C36.0452 32.3543 35.8219 31.7364 35.8219 30.9808C35.8219 30.2549 36.0434 29.6165 36.4863 29.0656C36.9293 28.5147 37.5826 28.2393 38.4461 28.2393C39.6112 28.2393 40.4152 28.7641 40.8582 29.8138C41.1039 30.3908 41.2267 31.1129 41.2267 31.9802C41.2267 32.9592 41.0797 33.8265 40.7856 34.5821C40.298 35.8403 39.4716 36.4693 38.3065 36.4693C37.5249 36.4693 36.9312 36.2646 36.5254 35.8552C36.1197 35.4457 35.9168 34.932 35.9168 34.3141L36.933 34.3141ZM38.4573 32.6726C38.8556 32.6726 39.2185 32.5423 39.5461 32.2817C39.8774 32.0174 40.043 31.5577 40.043 30.9026C40.043 30.3145 39.8941 29.8771 39.5963 29.5905C39.3023 29.3001 38.9263 29.155 38.4685 29.155C37.9771 29.155 37.5863 29.3206 37.2959 29.6519C37.0093 29.9795 36.866 30.4187 36.866 30.9696C36.866 31.4907 36.9926 31.9058 37.2457 32.2147C37.4988 32.52 37.9027 32.6726 38.4573 32.6726ZM43.0469 30.3443L44.2139 30.3443L44.2139 31.5615L43.0469 31.5615L43.0469 30.3443ZM43.0469 35.0288L44.2139 35.0288L44.2139 36.246L43.0469 36.246L43.0469 35.0288ZM48.7421 33.4152L48.7421 29.7915L46.1793 33.4152L48.7421 33.4152ZM48.7588 36.246L48.7588 34.2918L45.2524 34.2918L45.2524 33.3091L48.9152 28.2281L49.7638 28.2281L49.7638 33.4152L50.942 33.4152L50.942 34.2918L49.7638 34.2918L49.7638 36.246L48.7588 36.246ZM52.4216 30.5844L52.4216 29.8138C53.1474 29.7431 53.6537 29.6259 53.9403 29.4621C54.2269 29.2946 54.4409 28.9019 54.5824 28.284L55.3752 28.284L55.3752 36.246L54.3032 36.246L54.3032 30.5844L52.4216 30.5844Z" fill="#2A404E" fill-opacity="0.300000" fill-rule="evenodd"/>
	<rect id="icons8-empty_battery 1" width="14.199628" height="14.199628" transform="translate(270.628052 25.295410)" fill="#FFFFFF" fill-opacity="0"/>
	<g clip-path="url(#clip505_865)">
		<path id="Vector" d="M283.975 30.9753L283.407 30.9753L283.407 30.1233C283.407 29.3401 282.771 28.7034 281.987 28.7034L272.9 28.7034C272.116 28.7034 271.48 29.3401 271.48 30.1233L271.48 34.6672C271.48 35.4504 272.116 36.0872 272.9 36.0872L281.987 36.0872C282.771 36.0872 283.407 35.4504 283.407 34.6672L283.407 33.8152L283.975 33.8152C284.133 33.8152 284.259 33.6887 284.259 33.5312L284.259 31.2593C284.259 31.1028 284.133 30.9753 283.975 30.9753Z" fill="#2A404E" fill-opacity="0.300000" fill-rule="nonzero"/>
	</g>
	<rect id="icons8-wi-fi 1" width="14.199628" height="14.199628" transform="translate(253.872559 25.295410)" fill="#FFFFFF" fill-opacity="0"/>
	<g clip-path="url(#clip505_867)">
		<path id="Vector" d="M260.972 27.2839C258.399 27.2839 255.956 28.2703 254.094 30.0596L253.89 30.2559L255.461 31.8933L255.667 31.697C257.103 30.3169 258.988 29.5559 260.972 29.5559C262.955 29.5559 264.84 30.3169 266.278 31.697L266.483 31.8933L268.055 30.2559L267.85 30.0583C265.987 28.269 263.544 27.2839 260.972 27.2839ZM260.972 30.6919C259.281 30.6919 257.676 31.3396 256.452 32.5156L256.247 32.7119L257.826 34.3572L258.031 34.1597C258.832 33.3887 259.877 32.9639 260.972 32.9639C262.067 32.9639 263.112 33.3887 263.913 34.1597L264.118 34.3572L265.696 32.7119L265.492 32.5156C264.268 31.3396 262.662 30.6919 260.972 30.6919ZM260.972 34.0999C260.164 34.0999 259.396 34.4092 258.811 34.9729L258.607 35.1692L260.972 37.6331L263.337 35.1692L263.133 34.9729C262.547 34.4092 261.779 34.0999 260.972 34.0999Z" fill="#2A404E" fill-opacity="0.300000" fill-rule="nonzero"/>
	</g>
	<rect id="icons8-signal 1" width="10.912771" height="10.912771" transform="translate(238.618774 26.813477)" fill="#FFFFFF" fill-opacity="0"/>
	<g clip-path="url(#clip505_869)">
		<path id="Vector" d="M246.913 27.2483L246.913 37.2881L249.095 37.2881L249.095 27.2483L246.913 27.2483ZM244.294 29.6492L244.294 37.2881L246.476 37.2881L246.476 29.6492L244.294 29.6492ZM241.675 32.0498L241.675 37.2881L243.857 37.2881L243.857 32.0498L241.675 32.0498ZM239.056 34.4507L239.056 37.2881L241.238 37.2881L241.238 34.4507L239.056 34.4507Z" fill="#2A404E" fill-opacity="0.300000" fill-rule="nonzero"/>
	</g>
	<rect id="Rectangle 1397" x="101.687866" y="612.912354" rx="2.403075" width="116.612366" height="4.806149" fill="#FFFFFF" fill-opacity="1.000000"/>
	<g filter="url(#filter_505_872_dd)">
		<rect id="Rectangle 1398" x="101.687256" y="615.443115" rx="4.173761" width="116.612366" height="8.347523" fill="#5A7383" fill-opacity="0.500000"/>
	</g>
</svg>
